<svg xmlns="http://www.w3.org/2000/svg" viewBox="0 0 256 256" width="256" height="256">
  <defs>
    <linearGradient id="si1" x1="0" y1="0" x2="1" y2="0">
      <stop offset="0%" stop-color="#10b981" stop-opacity="0"/>
      <stop offset="40%" stop-color="#06b6d4"/>
      <stop offset="100%" stop-color="#8b5cf6"/>
    </linearGradient>
    <linearGradient id="si2" x1="0" y1="0" x2="1" y2="0">
      <stop offset="0%" stop-color="#06b6d4" stop-opacity="0"/>
      <stop offset="40%" stop-color="#06b6d4"/>
      <stop offset="100%" stop-color="#8b5cf6"/>
    </linearGradient>
    <linearGradient id="si3" x1="0" y1="0" x2="1" y2="0">
      <stop offset="0%" stop-color="#f472b6" stop-opacity="0"/>
      <stop offset="40%" stop-color="#f472b6"/>
      <stop offset="100%" stop-color="#8b5cf6"/>
    </linearGradient>
    <linearGradient id="si4" x1="0" y1="0" x2="1" y2="0">
      <stop offset="0%" stop-color="#fbbf24" stop-opacity="0"/>
      <stop offset="40%" stop-color="#fbbf24"/>
      <stop offset="100%" stop-color="#f97316"/>
    </linearGradient>
    <linearGradient id="si5" x1="0" y1="0" x2="1" y2="0">
      <stop offset="0%" stop-color="#818cf8" stop-opacity="0"/>
      <stop offset="40%" stop-color="#818cf8"/>
      <stop offset="100%" stop-color="#c084fc"/>
    </linearGradient>
    <filter id="gi">
      <feGaussianBlur stdDeviation="3" result="blur"/>
      <feMerge><feMergeNode in="blur"/><feMergeNode in="SourceGraphic"/></feMerge>
    </filter>
  </defs>

  <g filter="url(#gi)">
    <path d="M16 56 Q80 48 140 68 Q180 82 200 100" stroke="url(#si1)" stroke-width="3" fill="none" stroke-linecap="round"/>
    <path d="M8 96 Q80 84 140 100 Q180 112 208 120" stroke="url(#si2)" stroke-width="4" fill="none" stroke-linecap="round"/>
    <path d="M4 132 Q80 126 150 130 Q190 133 212 132" stroke="url(#si2)" stroke-width="5" fill="none" stroke-linecap="round"/>
    <path d="M12 168 Q80 176 145 164 Q185 155 208 148" stroke="url(#si3)" stroke-width="3.5" fill="none" stroke-linecap="round"/>
    <path d="M24 204 Q90 200 150 192 Q185 185 200 176" stroke="url(#si4)" stroke-width="2.5" fill="none" stroke-linecap="round"/>
  </g>

  <!-- Glow effects -->
  <path d="M8 96 Q80 84 140 100 Q180 112 208 120" stroke="url(#si2)" stroke-width="12" fill="none" stroke-linecap="round" opacity="0.08"/>
  <path d="M4 132 Q80 126 150 130 Q190 133 212 132" stroke="url(#si2)" stroke-width="14" fill="none" stroke-linecap="round" opacity="0.06"/>

  <!-- Convergence point -->
  <circle cx="212" cy="132" r="16" fill="#06b6d4" opacity="0.04"/>
  <circle cx="212" cy="132" r="8" fill="#06b6d4" opacity="0.06"/>
  <circle cx="212" cy="132" r="3" fill="#ffffff" opacity="0.5"/>
</svg>
