<svg xmlns="http://www.w3.org/2000/svg" viewBox="0 0 1280 320" width="1280" height="320">
  <rect fill="#0c0c1d" width="1280" height="320" rx="12"/>

  <!-- Stars -->
  <g fill="#ffffff">
    <rect x="120" y="24" width="3" height="3" opacity="0.6"/>
    <rect x="280" y="16" width="3" height="3" opacity="0.4"/>
    <rect x="400" y="40" width="3" height="3" opacity="0.7"/>
    <rect x="520" y="12" width="3" height="3" opacity="0.5"/>
    <rect x="680" y="32" width="3" height="3" opacity="0.3"/>
    <rect x="200" y="52" width="3" height="3" opacity="0.5"/>
    <rect x="340" y="28" width="3" height="3" opacity="0.4"/>
    <rect x="460" y="20" width="3" height="3" opacity="0.6"/>
    <rect x="600" y="44" width="3" height="3" opacity="0.3"/>
    <rect x="160" y="68" width="3" height="3" opacity="0.4"/>
    <rect x="440" y="60" width="3" height="3" opacity="0.5"/>
    <rect x="760" y="20" width="2" height="2" opacity="0.4"/>
    <rect x="880" y="36" width="2" height="2" opacity="0.3"/>
    <rect x="1020" y="24" width="2" height="2" opacity="0.5"/>
    <rect x="1160" y="16" width="2" height="2" opacity="0.4"/>
    <rect x="940" y="52" width="2" height="2" opacity="0.3"/>
    <rect x="1100" y="44" width="2" height="2" opacity="0.4"/>
    <rect x="1240" y="32" width="2" height="2" opacity="0.5"/>
  </g>

  <!-- Background mountain range (far) -->
  <g fill="#141432">
    <rect x="0" y="200" width="1280" height="120"/>
    <rect x="0" y="192" width="200" height="8"/>
    <rect x="40" y="184" width="120" height="8"/>
    <rect x="56" y="176" width="88" height="8"/>
    <rect x="72" y="168" width="56" height="8"/>
    <rect x="80" y="160" width="40" height="8"/>
    <rect x="88" y="152" width="24" height="8"/>
    <rect x="96" y="144" width="8" height="8"/>

    <rect x="200" y="192" width="200" height="8"/>
    <rect x="240" y="184" width="120" height="8"/>
    <rect x="264" y="176" width="72" height="8"/>
    <rect x="280" y="168" width="40" height="8"/>
    <rect x="288" y="160" width="24" height="8"/>
    <rect x="296" y="152" width="8" height="8"/>

    <rect x="480" y="192" width="240" height="8"/>
    <rect x="520" y="184" width="160" height="8"/>
    <rect x="544" y="176" width="112" height="8"/>
    <rect x="560" y="168" width="80" height="8"/>
    <rect x="576" y="160" width="48" height="8"/>
    <rect x="584" y="152" width="32" height="8"/>
    <rect x="592" y="144" width="16" height="8"/>
    <rect x="596" y="136" width="8" height="8"/>
  </g>

  <!-- Main mountain (pixel art, center-left) -->
  <g fill="#1a1a3e">
    <rect x="100" y="200" width="520" height="120"/>
    <rect x="140" y="192" width="440" height="8"/>
    <rect x="168" y="184" width="384" height="8"/>
    <rect x="192" y="176" width="336" height="8"/>
    <rect x="216" y="168" width="288" height="8"/>
    <rect x="240" y="160" width="240" height="8"/>
    <rect x="264" y="152" width="192" height="8"/>
    <rect x="288" y="144" width="144" height="8"/>
    <rect x="312" y="136" width="96" height="8"/>
    <rect x="328" y="128" width="64" height="8"/>
    <rect x="344" y="120" width="32" height="8"/>
    <rect x="352" y="112" width="16" height="8"/>
    <rect x="356" y="104" width="8" height="8"/>
  </g>

  <!-- Snow cap -->
  <g fill="#c8d6e5">
    <rect x="352" y="112" width="16" height="8"/>
    <rect x="356" y="104" width="8" height="8"/>
    <rect x="344" y="120" width="32" height="8"/>
    <rect x="336" y="128" width="16" height="8"/>
    <rect x="376" y="128" width="16" height="8"/>
  </g>
  <g fill="#ffffff">
    <rect x="356" y="104" width="8" height="8"/>
    <rect x="352" y="112" width="16" height="4"/>
  </g>

  <!-- Snow pixel accents -->
  <g fill="#c8d6e5" opacity="0.6">
    <rect x="296" y="144" width="8" height="8"/>
    <rect x="440" y="144" width="8" height="8"/>
    <rect x="264" y="160" width="8" height="8"/>
    <rect x="472" y="152" width="8" height="8"/>
  </g>

  <!-- Foreground hill -->
  <g fill="#12122a">
    <rect x="0" y="248" width="1280" height="72"/>
    <rect x="600" y="240" width="680" height="8"/>
    <rect x="640" y="232" width="600" height="8"/>
    <rect x="680" y="224" width="520" height="8"/>
    <rect x="720" y="216" width="440" height="8"/>
    <rect x="760" y="208" width="360" height="8"/>
  </g>

  <!-- Ground texture pixels -->
  <g fill="#1a1a3e" opacity="0.4">
    <rect x="40" y="272" width="16" height="8"/>
    <rect x="120" y="280" width="24" height="8"/>
    <rect x="240" y="268" width="16" height="8"/>
    <rect x="360" y="284" width="24" height="8"/>
    <rect x="480" y="272" width="16" height="8"/>
    <rect x="600" y="260" width="16" height="8"/>
    <rect x="800" y="268" width="24" height="8"/>
    <rect x="960" y="276" width="16" height="8"/>
    <rect x="1080" y="264" width="24" height="8"/>
  </g>

  <!-- RAPID text -->
  <text fill="#c8d6e5" x="740" y="120" font-family="monospace" font-weight="bold" font-size="80" letter-spacing="16">RAPID</text>

  <!-- Tagline -->
  <text fill="#4a4a7a" x="744" y="160" font-family="monospace" font-size="13" letter-spacing="3">RAPID AGENTIC PARALLELIZABLE</text>
  <text fill="#4a4a7a" x="744" y="178" font-family="monospace" font-size="13" letter-spacing="3">&amp; ISOLATABLE DEVELOPMENT</text>

  <!-- Summit flag pixel -->
  <rect fill="#ff6b6b" x="356" y="88" width="16" height="8"/>
  <rect fill="#ff6b6b" x="356" y="96" width="8" height="8"/>
  <rect fill="#c8d6e5" x="352" y="88" width="4" height="20"/>
</svg>
